<svg width="156" height="111" viewBox="0 0 156 111" fill="none" xmlns="http://www.w3.org/2000/svg">
<mask id="mask0_33_361" style="mask-type:luminance" maskUnits="userSpaceOnUse" x="15" y="54" width="49" height="49">
<path d="M39.4299 102.35C52.5798 102.35 63.2399 91.6898 63.2399 78.5399C63.2399 65.39 52.5798 54.7299 39.4299 54.7299C26.28 54.7299 15.6199 65.39 15.6199 78.5399C15.6199 91.6898 26.28 102.35 39.4299 102.35Z" fill="white"/>
</mask>
<g mask="url(#mask0_33_361)">
<path d="M12.4099 72.4999C14.4899 71.0399 16.7099 69.8199 19.0499 68.8199L17.0799 69.6499C20.1699 68.3699 23.3999 67.5099 26.7099 67.0499L24.5099 67.3499C28.1899 66.8699 31.8899 66.8799 35.5699 67.3699L33.3699 67.0699C36.9199 67.5699 40.3799 68.5099 43.6999 69.8899L41.7299 69.0599C44.6999 70.3299 47.4899 71.9499 50.0499 73.9099L48.3799 72.6199C50.6699 74.4199 52.7199 76.4699 54.4999 78.7599L53.2099 77.0899C55.1199 79.5999 56.6799 82.3299 57.9099 85.2399L57.0799 83.2699C58.4199 86.5199 59.3099 89.9099 59.7899 93.3899L59.4899 91.1899C59.9499 94.7999 59.9499 98.4399 59.4899 102.05L59.7899 99.8499C59.3099 103.33 58.4099 106.71 57.0499 109.95L57.8799 107.98C56.6799 110.77 55.1599 113.4 53.3099 115.81L54.5999 114.14C54.3799 114.42 54.1599 114.69 53.9399 114.96C52.5099 116.71 51.5199 118.46 51.5199 120.8C51.5199 122.83 52.4199 125.25 53.9399 126.64C55.4599 128.03 57.5799 129.16 59.7799 129.06C61.8399 128.97 64.2599 128.31 65.6199 126.64C68.8299 122.71 71.1899 118.7 73.1099 114.02C74.7599 109.99 75.5599 105.83 76.0699 101.52C77.1099 92.8599 75.3699 84.1699 71.8899 76.2499C64.8799 60.2599 47.9599 50.8499 30.8999 50.4599C21.5499 50.2499 11.7599 52.8299 4.06994 58.2299C2.27994 59.4899 0.869939 60.9899 0.269939 63.1699C-0.270061 65.1499 -0.030061 67.7799 1.09994 69.5399C3.35994 73.0499 8.61994 75.1599 12.3999 72.4999H12.4099Z" fill="#70A1D4"/>
</g>
<path d="M39.4299 102.35C52.5798 102.35 63.2399 91.6898 63.2399 78.5399C63.2399 65.39 52.5798 54.7299 39.4299 54.7299C26.28 54.7299 15.6199 65.39 15.6199 78.5399C15.6199 91.6898 26.28 102.35 39.4299 102.35Z" stroke="#FFFBEF" stroke-width="1.44" stroke-miterlimit="10"/>
<mask id="mask1_33_361" style="mask-type:luminance" maskUnits="userSpaceOnUse" x="100" y="54" width="48" height="49">
<path d="M123.94 102.35C137.09 102.35 147.75 91.6898 147.75 78.5399C147.75 65.39 137.09 54.7299 123.94 54.7299C110.79 54.7299 100.13 65.39 100.13 78.5399C100.13 91.6898 110.79 102.35 123.94 102.35Z" fill="white"/>
</mask>
<g mask="url(#mask1_33_361)">
<path d="M96.93 72.4999C99.01 71.0399 101.23 69.8199 103.57 68.8199L101.6 69.6499C104.69 68.3699 107.92 67.5099 111.23 67.0499L109.03 67.3499C112.71 66.8699 116.41 66.8799 120.09 67.3699L117.89 67.0699C121.44 67.5699 124.9 68.5099 128.22 69.8899L126.25 69.0599C129.22 70.3299 132.01 71.9499 134.57 73.9099L132.9 72.6199C135.19 74.4199 137.24 76.4699 139.02 78.7599L137.73 77.0899C139.64 79.5999 141.2 82.3299 142.43 85.2399L141.6 83.2699C142.94 86.5199 143.83 89.9099 144.31 93.3899L144.01 91.1899C144.47 94.7999 144.47 98.4399 144.01 102.05L144.31 99.8499C143.83 103.33 142.93 106.71 141.57 109.95L142.4 107.98C141.2 110.77 139.68 113.4 137.83 115.81L139.12 114.14C138.9 114.42 138.68 114.69 138.46 114.96C137.03 116.71 136.04 118.46 136.04 120.8C136.04 122.83 136.94 125.25 138.46 126.64C139.98 128.03 142.1 129.16 144.3 129.06C146.36 128.97 148.78 128.31 150.14 126.64C153.35 122.71 155.71 118.7 157.63 114.02C159.28 109.99 160.08 105.83 160.59 101.52C161.63 92.8599 159.89 84.1699 156.41 76.2499C149.4 60.2599 132.48 50.8499 115.42 50.4599C106.07 50.2499 96.28 52.8299 88.59 58.2299C86.8 59.4899 85.39 60.9899 84.79 63.1699C84.25 65.1499 84.49 67.7799 85.62 69.5399C87.88 73.0499 93.14 75.1599 96.92 72.4999H96.93Z" fill="#70A1D4"/>
</g>
<path d="M123.94 102.35C137.09 102.35 147.75 91.6898 147.75 78.5399C147.75 65.39 137.09 54.7299 123.94 54.7299C110.79 54.7299 100.13 65.39 100.13 78.5399C100.13 91.6898 110.79 102.35 123.94 102.35Z" stroke="#FFFBEF" stroke-width="1.44" stroke-miterlimit="10"/>
<path d="M39.4299 109.81C56.965 109.81 71.1799 95.595 71.1799 78.0599C71.1799 60.5249 56.965 46.3099 39.4299 46.3099C21.8949 46.3099 7.67993 60.5249 7.67993 78.0599C7.67993 95.595 21.8949 109.81 39.4299 109.81Z" stroke="#FFFBEF" stroke-width="1.44" stroke-miterlimit="10"/>
<path d="M70.7099 72.7499C68.5799 60.9199 59.9899 51.2399 48.5199 47.7299C36.9599 44.1899 24.3199 47.4899 15.9399 56.2299C23.6499 45.2099 31.3599 34.1999 39.0699 23.1799C42.1599 22.4599 48.5699 21.4099 56.0699 23.6499C66.6699 26.8199 72.3399 34.4299 74.0099 36.8699C72.9099 48.8299 71.8099 60.7899 70.7099 72.7499Z" stroke="#FFFBEF" stroke-width="1.42" stroke-linecap="round" stroke-linejoin="round"/>
<path d="M72.5399 34.2199C70.7899 31.8699 66.9099 27.2999 60.2699 24.1699C53.9299 21.1799 48.1999 20.9799 45.2999 21.0699C46.9799 18.9499 48.6599 16.8199 50.3399 14.6999C51.3999 14.1699 58.1399 10.9399 65.4999 14.0199C70.2299 15.9999 72.7399 19.5599 73.6699 21.0399C73.2999 25.4299 72.9299 29.8299 72.5499 34.2199H72.5399Z" stroke="#FFFBEF" stroke-width="1.42" stroke-miterlimit="10"/>
<path d="M71.7798 56.6799C71.2398 55.5699 70.3198 53.9799 68.8298 52.4599C67.4298 51.0199 66.0498 50.1599 65.0598 49.6599C65.5798 45.4099 66.0998 41.1499 66.6198 36.8999C67.4598 37.0299 69.1098 37.4199 70.7898 38.7499C72.4498 40.0699 73.3298 41.6599 73.7298 42.4999C73.0798 47.2299 72.4198 51.9499 71.7698 56.6799H71.7798Z" stroke="#FFFBEF" stroke-width="1.33" stroke-miterlimit="10"/>
<path d="M90.95 56.78C91.49 55.67 92.41 54.08 93.9 52.56C95.3 51.12 96.68 50.26 97.67 49.76C97.15 45.51 96.63 41.25 96.11 37C95.27 37.13 93.62 37.52 91.94 38.85C90.28 40.17 89.4 41.76 89 42.6C89.65 47.33 90.31 52.05 90.96 56.78H90.95Z" stroke="#FFFBEF" stroke-width="1.33" stroke-miterlimit="10"/>
<path d="M123.47 102.35C136.62 102.35 147.28 91.6899 147.28 78.54C147.28 65.3901 136.62 54.73 123.47 54.73C110.32 54.73 99.66 65.3901 99.66 78.54C99.66 91.6899 110.32 102.35 123.47 102.35Z" stroke="#FFFBEF" stroke-width="1.44" stroke-miterlimit="10"/>
<path d="M123.47 109.81C141.005 109.81 155.22 95.595 155.22 78.06C155.22 60.525 141.005 46.31 123.47 46.31C105.935 46.31 91.72 60.525 91.72 78.06C91.72 95.595 105.935 109.81 123.47 109.81Z" stroke="#FFFBEF" stroke-width="1.44" stroke-miterlimit="10"/>
<path d="M92.19 72.75C94.32 60.92 102.91 51.24 114.38 47.73C125.94 44.19 138.58 47.49 146.96 56.23C139.25 45.21 131.54 34.2 123.83 23.18C120.74 22.46 114.33 21.41 106.83 23.65C96.23 26.82 90.56 34.43 88.89 36.87C89.99 48.83 91.09 60.79 92.19 72.75Z" stroke="#FFFBEF" stroke-width="1.42" stroke-linecap="round" stroke-linejoin="round"/>
<path d="M90.35 34.22C92.1 31.87 95.98 27.3 102.62 24.17C108.96 21.18 114.69 20.98 117.59 21.07C115.91 18.95 114.23 16.82 112.55 14.7C111.49 14.17 104.75 10.94 97.39 14.02C92.66 16 90.15 19.56 89.22 21.04C89.59 25.43 89.96 29.83 90.34 34.22H90.35Z" stroke="#FFFBEF" stroke-width="1.42" stroke-miterlimit="10"/>
<path d="M90.0701 51.27H72.6001C72.9101 48.36 73.2301 45.45 73.5401 42.54H89.1201C89.4301 45.45 89.7501 48.36 90.0601 51.27H90.0701Z" stroke="#FFFBEF" stroke-width="1.55" stroke-miterlimit="10"/>
<path d="M90.5401 56.23H72.6001C72.7601 54.58 72.9101 52.93 73.0701 51.27H90.0701C90.2301 52.92 90.3801 54.57 90.5401 56.23Z" stroke="#FFFBEF" stroke-width="1.3" stroke-miterlimit="10"/>
</svg>
