<svg width="202" height="43" viewBox="0 0 202 43" fill="none" xmlns="http://www.w3.org/2000/svg">
    <path
        d="M182.086 40.1175C181.811 40.1175 181.573 40.0209 181.373 39.8277C181.172 39.6346 181.076 39.3894 181.076 39.0923C181.076 38.7951 181.172 38.5499 181.373 38.3642C181.573 38.1785 181.811 38.0819 182.086 38.0819C182.361 38.0819 182.584 38.1785 182.777 38.3642C182.97 38.5499 183.067 38.7951 183.067 39.0923C183.067 39.3894 182.97 39.6346 182.777 39.8277C182.584 40.0209 182.354 40.1175 182.086 40.1175Z"
        fill="#FFFBEF" />
    <path
        d="M188.252 40.1175C187.576 40.1175 186.989 39.9912 186.477 39.746C185.964 39.5009 185.57 39.122 185.288 38.6094C185.006 38.0967 184.865 37.4578 184.865 36.6852V32.1534H186.291V36.5218C186.291 37.2944 186.477 37.8739 186.848 38.2602C187.22 38.6465 187.74 38.8397 188.416 38.8397C188.913 38.8397 189.344 38.7357 189.708 38.5351C190.072 38.3345 190.355 38.0373 190.555 37.6436C190.756 37.2498 190.852 36.7818 190.852 36.2246V32.1534H192.279V40.0283H190.927V37.9036L191.15 38.4682C190.89 38.9957 190.503 39.3969 189.991 39.6866C189.478 39.9763 188.899 40.1175 188.252 40.1175Z"
        fill="#FFFBEF" />
    <path
        d="M195.34 43C194.961 43 194.597 42.9406 194.24 42.8143C193.884 42.688 193.579 42.5097 193.319 42.2719L193.928 41.2021C194.129 41.3879 194.344 41.5365 194.582 41.633C194.82 41.7296 195.072 41.7816 195.34 41.7816C195.689 41.7816 195.971 41.6925 196.201 41.5142C196.432 41.3359 196.64 41.0164 196.84 40.5632L197.331 39.4786L197.479 39.3003L200.57 32.1534H201.967L198.148 40.8158C197.918 41.373 197.665 41.8039 197.383 42.1234C197.1 42.4428 196.788 42.6657 196.454 42.7994C196.12 42.9331 195.748 43 195.34 43ZM197.212 40.2809L193.616 32.1534H195.102L198.163 39.1665L197.212 40.2809Z"
        fill="#FFFBEF" />
    <path
        d="M49.2673 41.3359C47.1649 41.3359 45.315 40.9793 43.7326 40.2661C42.1428 39.5529 40.9244 38.5648 40.07 37.2944C39.2157 36.0314 38.7848 34.5902 38.7848 32.9855C38.7848 31.3808 39.1488 30.0584 39.8843 28.8103C40.6124 27.5622 41.8085 26.5667 43.4652 25.8163C45.1219 25.066 47.358 24.6945 50.1811 24.6945H59.1704V28.3868H50.3966C47.8261 28.3868 46.1025 28.8177 45.211 29.6721C44.3195 30.5264 43.8738 31.5591 43.8738 32.7775C43.8738 34.1667 44.4235 35.2811 45.5305 36.1206C46.6374 36.9601 48.1678 37.3761 50.1291 37.3761C52.0904 37.3761 53.7397 36.9452 55.181 36.0909C56.6222 35.2365 57.6697 33.9884 58.3086 32.3466L59.3264 35.8754C58.6504 37.5544 57.4543 38.8768 55.7456 39.8575C54.0369 40.8381 51.875 41.3284 49.2748 41.3284L49.2673 41.3359ZM58.5761 41.0164V35.0285L58.3086 33.9067V23.6916C58.3086 21.5148 57.6772 19.8284 56.4068 18.6398C55.1364 17.4437 53.242 16.8493 50.7086 16.8493C49.0296 16.8493 47.3952 17.1242 45.7905 17.6814C44.1858 18.2386 42.8263 18.9741 41.7267 19.9027L39.5871 16.0544C41.0507 14.8806 42.804 13.9742 44.8544 13.3502C46.9049 12.7261 49.0519 12.4141 51.3029 12.4141C55.1884 12.4141 58.1823 13.3576 60.2922 15.2521C62.3947 17.1391 63.4496 20.029 63.4496 23.9145V41.0313H58.5835L58.5761 41.0164Z"
        fill="#FFFBEF" />
    <path
        d="M77.8845 41.3359C75.5295 41.3359 73.2933 41.0164 71.1685 40.3701C69.0438 39.7312 67.3797 38.9437 66.1687 38.015L68.3083 33.9513C69.5193 34.7685 71.0199 35.4668 72.8029 36.0389C74.586 36.6109 76.4061 36.8932 78.256 36.8932C80.6407 36.8932 82.3643 36.5515 83.4192 35.8754C84.4742 35.1994 84.9942 34.2559 84.9942 33.0375C84.9942 32.146 84.6748 31.4476 84.0284 30.9499C83.3895 30.4521 82.5426 30.0732 81.4877 29.8281C80.4327 29.5829 79.2663 29.3526 77.9811 29.1594C76.6958 28.9663 75.4106 28.7137 74.1328 28.4091C72.8475 28.1045 71.6737 27.681 70.6039 27.1239C69.5341 26.5741 68.6798 25.8015 68.0334 24.8208C67.3945 23.8402 67.0676 22.5326 67.0676 20.8908C67.0676 19.2489 67.5505 17.6814 68.5089 16.3961C69.4747 15.1109 70.8342 14.1228 72.6024 13.4245C74.3705 12.7261 76.4655 12.3844 78.8874 12.3844C80.7447 12.3844 82.6243 12.6073 84.5336 13.053C86.4429 13.4988 88.003 14.1302 89.214 14.9549L87.0224 19.0186C85.7371 18.1643 84.3999 17.5774 83.0106 17.2505C81.6214 16.931 80.2321 16.7676 78.8354 16.7676C76.5918 16.7676 74.9128 17.1316 73.8059 17.8671C72.6989 18.5952 72.1492 19.5312 72.1492 20.6753C72.1492 21.6411 72.4761 22.3766 73.1373 22.8967C73.7985 23.4167 74.6528 23.8179 75.7078 24.1002C76.7627 24.3825 77.9291 24.6277 79.2143 24.8208C80.4996 25.014 81.7848 25.2666 83.0626 25.5712C84.3479 25.8758 85.5143 26.2918 86.5692 26.8267C87.6241 27.3616 88.4785 28.1119 89.1397 29.0703C89.8009 30.0361 90.1278 31.3139 90.1278 32.9186C90.1278 34.6273 89.63 36.1132 88.6271 37.3613C87.6316 38.6094 86.22 39.5826 84.3999 40.2735C82.5797 40.9718 80.403 41.3136 77.8771 41.3136L77.8845 41.3359Z"
        fill="#FFFBEF" />
    <path
        d="M137.466 41.3359C134.651 41.3359 132.125 40.7118 129.896 39.4637C127.667 38.2156 125.914 36.492 124.629 34.3004C123.344 32.1088 122.705 29.6201 122.705 26.8416C122.705 24.063 123.344 21.5371 124.629 19.3827C125.914 17.2282 127.66 15.5195 129.874 14.2714C132.088 13.0233 134.614 12.3992 137.466 12.3992C140.319 12.3992 142.808 13.0159 145.037 14.2417C147.265 15.4749 149.011 17.1762 150.282 19.3529C151.545 21.5297 152.184 24.0259 152.184 26.8416C152.184 29.6572 151.552 32.1534 150.282 34.3302C149.019 36.5069 147.265 38.2156 145.037 39.4637C142.808 40.7118 140.282 41.3359 137.466 41.3359ZM137.466 36.8412C139.287 36.8412 140.914 36.4326 142.362 35.608C143.803 34.7908 144.94 33.6244 145.757 32.1014C146.575 30.5859 146.991 28.8326 146.991 26.8341C146.991 24.8357 146.582 23.0452 145.757 21.5668C144.94 20.0884 143.803 18.9369 142.362 18.1197C140.921 17.3025 139.287 16.8865 137.466 16.8865C135.646 16.8865 134.027 17.2951 132.6 18.1197C131.174 18.9443 130.03 20.0884 129.175 21.5668C128.321 23.0452 127.89 24.806 127.89 26.8341C127.89 28.8623 128.321 30.5859 129.175 32.1014C130.03 33.617 131.174 34.7833 132.6 35.608C134.027 36.4326 135.646 36.8412 137.466 36.8412Z"
        fill="#FFFBEF" />
    <path
        d="M164.211 41.3359C161.856 41.3359 159.62 41.0164 157.495 40.3701C155.371 39.7312 153.707 38.9437 152.496 38.015L154.635 33.9513C155.846 34.7685 157.347 35.4668 159.13 36.0389C160.913 36.6109 162.733 36.8932 164.583 36.8932C166.968 36.8932 168.691 36.5515 169.746 35.8754C170.801 35.1994 171.321 34.2559 171.321 33.0375C171.321 32.146 171.002 31.4476 170.355 30.9499C169.716 30.4521 168.869 30.0732 167.815 29.8281C166.76 29.5829 165.593 29.3526 164.308 29.1594C163.023 28.9663 161.737 28.7137 160.46 28.4091C159.174 28.1045 158.001 27.681 156.931 27.1239C155.861 26.5741 155.007 25.8015 154.36 24.8208C153.721 23.8402 153.395 22.5326 153.395 20.8908C153.395 19.2489 153.877 17.6814 154.836 16.3961C155.802 15.1109 157.161 14.1228 158.929 13.4245C160.697 12.7261 162.792 12.3844 165.214 12.3844C167.072 12.3844 168.951 12.6073 170.861 13.053C172.77 13.4988 174.33 14.1302 175.541 14.9549L173.349 19.0186C172.064 18.1643 170.727 17.5774 169.338 17.2505C167.948 16.931 166.559 16.7676 165.162 16.7676C162.919 16.7676 161.24 17.1316 160.133 17.8671C159.026 18.5952 158.476 19.5312 158.476 20.6753C158.476 21.6411 158.803 22.3766 159.464 22.8967C160.125 23.4167 160.98 23.8179 162.035 24.1002C163.09 24.3825 164.256 24.6277 165.541 24.8208C166.826 25.014 168.112 25.2666 169.39 25.5712C170.675 25.8758 171.841 26.2918 172.896 26.8267C173.951 27.3616 174.805 28.1119 175.467 29.0703C176.128 30.0361 176.455 31.3139 176.455 32.9186C176.455 34.6273 175.957 36.1132 174.954 37.3613C173.958 38.6094 172.547 39.5826 170.727 40.2735C168.907 40.9718 166.73 41.3136 164.204 41.3136L164.211 41.3359Z"
        fill="#FFFBEF" />
    <path
        d="M1 22.5921C7.0102 24.8134 14.3948 25.6009 20.7319 24.7465C25.962 24.0407 31.3853 21.6188 34.2604 16.983C35.4491 15.0663 36.0954 12.7707 35.8354 10.5345C35.5011 7.71886 33.6735 5.12608 31.1327 3.87055C26.1106 1.38178 18.5551 4.56146 15.8509 9.2047C13.4736 13.2907 13.0873 18.2237 13.1764 22.9487C13.2878 29.0926 13.4067 35.1994 13.4067 41.3061"
        stroke="#FFFBEF" stroke-width="5.20042" stroke-miterlimit="10" />
    <path
        d="M91.9108 18.61C94.2361 22.4063 97.8392 24.4568 102.193 25.4003C106.554 26.3512 111.442 25.3483 114.325 21.708C115.721 19.9473 116.286 17.3545 115.149 15.4155C113.797 13.105 110.647 12.533 108.002 12.9713C103.292 13.7513 99.0873 17.0722 97.2375 21.4777C94.9121 27.0198 96.3534 34.1444 101.487 37.5693C105.484 40.2438 111.286 39.8723 114.807 36.544C117.482 34.0181 117.735 31.195 117.861 27.733"
        stroke="#FFFBEF" stroke-width="4.4575" stroke-miterlimit="10" />
</svg>