<svg width="230" height="42" viewBox="0 0 230 42" fill="none" xmlns="http://www.w3.org/2000/svg">
    <path
        d="M102.267 41.3359C100.165 41.3359 98.315 40.9793 96.7326 40.2661C95.1428 39.5529 93.9244 38.5648 93.07 37.2944C92.2157 36.0314 91.7848 34.5902 91.7848 32.9855C91.7848 31.3808 92.1488 30.0584 92.8843 28.8103C93.6124 27.5622 94.8085 26.5667 96.4652 25.8163C98.1219 25.066 100.358 24.6945 103.181 24.6945H112.17V28.3868H103.397C100.826 28.3868 99.1025 28.8177 98.211 29.6721C97.3195 30.5264 96.8738 31.5591 96.8738 32.7775C96.8738 34.1667 97.4235 35.2811 98.5305 36.1206C99.6374 36.9601 101.168 37.3761 103.129 37.3761C105.09 37.3761 106.74 36.9452 108.181 36.0909C109.622 35.2365 110.67 33.9884 111.309 32.3466L112.326 35.8754C111.65 37.5544 110.454 38.8768 108.746 39.8575C107.037 40.8381 104.875 41.3284 102.275 41.3284L102.267 41.3359ZM111.576 41.0164V35.0285L111.309 33.9067V23.6916C111.309 21.5148 110.677 19.8284 109.407 18.6398C108.136 17.4437 106.242 16.8493 103.709 16.8493C102.03 16.8493 100.395 17.1242 98.7905 17.6814C97.1858 18.2386 95.8263 18.9741 94.7267 19.9027L92.5871 16.0544C94.0507 14.8806 95.804 13.9742 97.8544 13.3502C99.9049 12.7261 102.052 12.4141 104.303 12.4141C108.188 12.4141 111.182 13.3576 113.292 15.2521C115.395 17.1391 116.45 20.029 116.45 23.9145V41.0313H111.584L111.576 41.0164Z"
        fill="#FFFBEF" />
    <path
        d="M130.884 41.3359C128.529 41.3359 126.293 41.0164 124.169 40.3701C122.044 39.7312 120.38 38.9437 119.169 38.015L121.308 33.9513C122.519 34.7685 124.02 35.4668 125.803 36.0389C127.586 36.6109 129.406 36.8932 131.256 36.8932C133.641 36.8932 135.364 36.5515 136.419 35.8754C137.474 35.1994 137.994 34.2559 137.994 33.0375C137.994 32.146 137.675 31.4476 137.028 30.9499C136.39 30.4521 135.543 30.0732 134.488 29.8281C133.433 29.5829 132.266 29.3526 130.981 29.1594C129.696 28.9663 128.411 28.7137 127.133 28.4091C125.848 28.1045 124.674 27.681 123.604 27.1239C122.534 26.5741 121.68 25.8015 121.033 24.8208C120.395 23.8402 120.068 22.5326 120.068 20.8908C120.068 19.2489 120.551 17.6814 121.509 16.3961C122.475 15.1109 123.834 14.1228 125.602 13.4245C127.371 12.7261 129.466 12.3844 131.887 12.3844C133.745 12.3844 135.624 12.6073 137.534 13.053C139.443 13.4988 141.003 14.1302 142.214 14.9549L140.022 19.0186C138.737 18.1643 137.4 17.5774 136.011 17.2505C134.621 16.931 133.232 16.7676 131.835 16.7676C129.592 16.7676 127.913 17.1316 126.806 17.8671C125.699 18.5952 125.149 19.5312 125.149 20.6753C125.149 21.6411 125.476 22.3766 126.137 22.8967C126.798 23.4167 127.653 23.8179 128.708 24.1002C129.763 24.3825 130.929 24.6277 132.214 24.8208C133.5 25.014 134.785 25.2666 136.063 25.5712C137.348 25.8758 138.514 26.2918 139.569 26.8267C140.624 27.3616 141.479 28.1119 142.14 29.0703C142.801 30.0361 143.128 31.3139 143.128 32.9186C143.128 34.6273 142.63 36.1132 141.627 37.3613C140.632 38.6094 139.22 39.5826 137.4 40.2735C135.58 40.9718 133.403 41.3136 130.877 41.3136L130.884 41.3359Z"
        fill="#FFFBEF" />
    <path
        d="M190.466 41.3359C187.651 41.3359 185.125 40.7118 182.896 39.4637C180.667 38.2156 178.914 36.492 177.629 34.3004C176.344 32.1088 175.705 29.6201 175.705 26.8416C175.705 24.063 176.344 21.5371 177.629 19.3827C178.914 17.2282 180.66 15.5195 182.874 14.2714C185.088 13.0233 187.614 12.3992 190.466 12.3992C193.319 12.3992 195.808 13.0159 198.037 14.2417C200.265 15.4749 202.011 17.1762 203.282 19.3529C204.545 21.5297 205.184 24.0259 205.184 26.8416C205.184 29.6572 204.552 32.1534 203.282 34.3302C202.019 36.5069 200.265 38.2156 198.037 39.4637C195.808 40.7118 193.282 41.3359 190.466 41.3359ZM190.466 36.8412C192.287 36.8412 193.914 36.4326 195.362 35.608C196.803 34.7908 197.94 33.6244 198.757 32.1014C199.575 30.5859 199.991 28.8326 199.991 26.8341C199.991 24.8357 199.582 23.0452 198.757 21.5668C197.94 20.0884 196.803 18.9369 195.362 18.1197C193.921 17.3025 192.287 16.8865 190.466 16.8865C188.646 16.8865 187.027 17.2951 185.6 18.1197C184.174 18.9443 183.03 20.0884 182.175 21.5668C181.321 23.0452 180.89 24.806 180.89 26.8341C180.89 28.8623 181.321 30.5859 182.175 32.1014C183.03 33.617 184.174 34.7833 185.6 35.608C187.027 36.4326 188.646 36.8412 190.466 36.8412Z"
        fill="#FFFBEF" />
    <path
        d="M217.211 41.3359C214.856 41.3359 212.62 41.0164 210.495 40.3701C208.371 39.7312 206.707 38.9437 205.496 38.015L207.635 33.9513C208.846 34.7685 210.347 35.4668 212.13 36.0389C213.913 36.6109 215.733 36.8932 217.583 36.8932C219.968 36.8932 221.691 36.5515 222.746 35.8754C223.801 35.1994 224.321 34.2559 224.321 33.0375C224.321 32.146 224.002 31.4476 223.355 30.9499C222.716 30.4521 221.869 30.0732 220.815 29.8281C219.76 29.5829 218.593 29.3526 217.308 29.1594C216.023 28.9663 214.737 28.7137 213.46 28.4091C212.174 28.1045 211.001 27.681 209.931 27.1239C208.861 26.5741 208.007 25.8015 207.36 24.8208C206.721 23.8402 206.395 22.5326 206.395 20.8908C206.395 19.2489 206.877 17.6814 207.836 16.3961C208.802 15.1109 210.161 14.1228 211.929 13.4245C213.697 12.7261 215.792 12.3844 218.214 12.3844C220.072 12.3844 221.951 12.6073 223.861 13.053C225.77 13.4988 227.33 14.1302 228.541 14.9549L226.349 19.0186C225.064 18.1643 223.727 17.5774 222.338 17.2505C220.948 16.931 219.559 16.7676 218.162 16.7676C215.919 16.7676 214.24 17.1316 213.133 17.8671C212.026 18.5952 211.476 19.5312 211.476 20.6753C211.476 21.6411 211.803 22.3766 212.464 22.8967C213.125 23.4167 213.98 23.8179 215.035 24.1002C216.09 24.3825 217.256 24.6277 218.541 24.8208C219.826 25.014 221.112 25.2666 222.39 25.5712C223.675 25.8758 224.841 26.2918 225.896 26.8267C226.951 27.3616 227.805 28.1119 228.467 29.0703C229.128 30.0361 229.455 31.3139 229.455 32.9186C229.455 34.6273 228.957 36.1132 227.954 37.3613C226.958 38.6094 225.547 39.5826 223.727 40.2735C221.907 40.9718 219.73 41.3136 217.204 41.3136L217.211 41.3359Z"
        fill="#FFFBEF" />
    <path
        d="M54 22.5921C60.0102 24.8134 67.3948 25.6009 73.7319 24.7465C78.962 24.0407 84.3853 21.6188 87.2604 16.983C88.4491 15.0663 89.0954 12.7707 88.8354 10.5345C88.5011 7.71886 86.6735 5.12608 84.1327 3.87055C79.1106 1.38178 71.5551 4.56146 68.8509 9.2047C66.4736 13.2907 66.0873 18.2237 66.1764 22.9487C66.2878 29.0926 66.4067 35.1994 66.4067 41.3061"
        stroke="#FFFBEF" stroke-width="5.20042" stroke-miterlimit="10" />
    <path
        d="M144.911 18.61C147.236 22.4063 150.839 24.4568 155.193 25.4003C159.554 26.3512 164.442 25.3483 167.325 21.708C168.721 19.9473 169.286 17.3545 168.149 15.4155C166.797 13.105 163.647 12.533 161.002 12.9713C156.292 13.7513 152.087 17.0722 150.237 21.4777C147.912 27.0198 149.353 34.1444 154.487 37.5693C158.484 40.2438 164.286 39.8723 167.807 36.544C170.482 34.0181 170.735 31.195 170.861 27.733"
        stroke="#FFFBEF" stroke-width="4.4575" stroke-miterlimit="10" />
    <path
        d="M0.604421 29L2.81368 17.8703H5.41895L3.20968 29H0.604421ZM4.71032 16.0362C4.23789 16.0362 3.85579 15.8973 3.564 15.6194C3.28611 15.3276 3.14716 14.9802 3.14716 14.5773C3.14716 14.1048 3.30695 13.7088 3.62653 13.3893C3.96 13.0697 4.39074 12.9099 4.91874 12.9099C5.37726 12.9099 5.75242 13.0488 6.04421 13.3267C6.336 13.5907 6.4819 13.9173 6.4819 14.3063C6.4819 14.8204 6.32211 15.2373 6.00253 15.5568C5.68295 15.8764 5.25221 16.0362 4.71032 16.0362ZM14.9034 17.7453C15.8621 17.7453 16.675 17.9398 17.3419 18.3288C18.0089 18.7179 18.4744 19.2945 18.7384 20.0587C19.0163 20.8091 19.044 21.7331 18.8217 22.8307L17.592 29H14.9868L16.1956 22.8933C16.3763 21.9901 16.2929 21.2884 15.9455 20.7882C15.5981 20.2741 14.9659 20.0171 14.0489 20.0171C13.0901 20.0171 12.2981 20.2811 11.6729 20.8091C11.0476 21.3371 10.6238 22.1429 10.4015 23.2267L9.23436 29H6.62909L8.83836 17.8703H11.3186L10.6933 21.0383L10.2765 20.0379C10.8045 19.2459 11.4645 18.6693 12.2565 18.308C13.0624 17.9328 13.9447 17.7453 14.9034 17.7453ZM21.2305 29L23.6065 17.1617C23.8427 15.9945 24.3359 15.0775 25.0862 14.4105C25.8366 13.7297 26.837 13.3893 28.0875 13.3893C28.5599 13.3893 29.0115 13.4448 29.4422 13.556C29.873 13.6672 30.2342 13.8339 30.526 14.0562L29.4631 15.9528C29.0879 15.6472 28.6294 15.4943 28.0875 15.4943C27.5456 15.4943 27.1149 15.6472 26.7953 15.9528C26.4757 16.2585 26.2465 16.724 26.1075 17.3493L25.8366 18.5998L25.7115 19.6627L23.8357 29H21.2305ZM21.2096 20.0379L21.6265 17.9537H29.0254L28.6086 20.0379H21.2096ZM33.9301 29.1459C32.8463 29.1459 31.8946 28.9444 31.0748 28.5415C30.2689 28.1246 29.6436 27.5549 29.199 26.8324C28.7543 26.096 28.532 25.2345 28.532 24.248C28.532 22.9975 28.8169 21.8859 29.3866 20.9133C29.9562 19.9267 30.7343 19.1556 31.7209 18.5998C32.7213 18.0301 33.8607 17.7453 35.139 17.7453C36.2367 17.7453 37.1884 17.9467 37.9943 18.3497C38.8141 18.7387 39.4463 19.3015 39.891 20.0379C40.3356 20.7604 40.5579 21.6219 40.5579 22.6223C40.5579 23.8589 40.2731 24.9705 39.7034 25.9571C39.1337 26.9436 38.3487 27.7217 37.3482 28.2914C36.3617 28.8611 35.2223 29.1459 33.9301 29.1459ZM34.0969 26.9158C34.8472 26.9158 35.5072 26.7421 36.0769 26.3947C36.6466 26.0335 37.0981 25.5402 37.4316 24.9149C37.7651 24.2897 37.9318 23.5672 37.9318 22.7474C37.9318 21.8859 37.6748 21.2051 37.1607 20.7048C36.6466 20.2046 35.924 19.9545 34.9931 19.9545C34.2567 19.9545 33.5967 20.1352 33.0131 20.4964C32.4434 20.8438 31.9918 21.3301 31.6583 21.9554C31.3249 22.5806 31.1581 23.3032 31.1581 24.1229C31.1581 24.9983 31.4152 25.6861 31.9293 26.1863C32.4434 26.6726 33.1659 26.9158 34.0969 26.9158Z"
        fill="#FFFBEF" />
</svg>